<?xml version="1.0" standalone="no"?><!DOCTYPE svg PUBLIC "-//W3C//DTD SVG 1.1//EN" "http://www.w3.org/Graphics/SVG/1.1/DTD/svg11.dtd"><svg t="1595514966657" class="icon" viewBox="0 0 1515 1024" version="1.1" xmlns="http://www.w3.org/2000/svg" p-id="1851" xmlns:xlink="http://www.w3.org/1999/xlink" width="295.8984375" height="200"><defs><style type="text/css"></style></defs><path d="M1495.924669 163.086042H1194.000481a105.554121 105.554121 0 0 1-73.880307-29.874165c-10.115919-9.793877-21.065359-22.315641-32.677828-35.57621-16.499935-18.84895-50.825863-58.0434-62.968754-58.479104H484.408547c-11.366201 0.625141-42.358043 38.304098-57.228823 56.433188-10.835778 13.260568-21.065359 25.687614-30.707686 35.519379a106.861234 106.861234 0 0 1-75.90728 31.957968H19.56881a19.56881 19.56881 0 1 1 0-39.137619h300.995948a67.534178 67.534178 0 0 0 47.946425-20.212894c8.448876-8.619369 18.148034-20.459162 28.415503-32.980927 29.836278-36.371843 58.024457-70.735658 87.481861-70.735658h540.159763c29.514236 0 60.051429 34.894237 92.388271 71.834391 11.063102 12.635427 21.501064 24.626769 30.461419 33.227194a66.605938 66.605938 0 0 0 46.582481 18.943669h301.924188a19.56881 19.56881 0 1 1 0 39.137619z" fill="#5D4E44" p-id="1852"></path><path d="M100.685598 671.799316l1304.404181 0 0 182.616964-1304.404181 0 0-182.616964Z" fill="#493A31" p-id="1853"></path><path d="M1359.416594 678.315937H146.339839a13.052188 13.052188 0 0 1-13.052188-13.052187l26.085432-339.091666a13.052188 13.052188 0 0 1 13.0143-13.071131h1160.94378a13.052188 13.052188 0 0 1 13.052187 13.052187l26.085432 339.091666a13.052188 13.052188 0 0 1-13.052188 13.071131z" fill="#493A31" p-id="1854"></path><path d="M146.339839 717.453557l1213.095699 0 0 104.360669-1213.095699 0 0-104.360669Z" fill="#736357" p-id="1855"></path><path d="M1346.38335 730.505744v78.256295H159.373083V730.505744h1187.010267m0-13.052187H159.373083a13.052188 13.052188 0 0 0-13.052188 13.052187v78.256295a13.052188 13.052188 0 0 0 13.052188 13.052187h1187.010267a13.052188 13.052188 0 0 0 13.052188-13.052187V730.505744a13.052188 13.052188 0 0 0-13.052188-13.052187z" fill="#5D4E44" p-id="1856"></path><path d="M100.685598 671.799316l1304.404181 0 0 39.137619-1304.404181 0 0-39.137619Z" fill="#5D4E44" p-id="1857"></path><path d="M100.685598 828.330848l1304.404181 0 0 26.085432-1304.404181 0 0-26.085432Z" fill="#5D4E44" p-id="1858"></path><path d="M100.685598 945.724762l1304.404181 0 0 39.137619-1304.404181 0 0-39.137619Z" fill="#5D4E44" p-id="1859"></path><path d="M133.287651 300.048765l1239.181131 0 0 39.137619-1239.181131 0 0-39.137619Z" fill="#5D4E44" p-id="1860"></path><path d="M178.941893 345.703006l547.850892 0 0 260.873259-547.850892 0 0-260.873259Z" fill="#C7B299" p-id="1861"></path><path d="M133.287651 123.948423l39.13762 0 0 195.669152-39.13762 0 0-195.669152Z" fill="#5D4E44" p-id="1862"></path><path d="M1333.331163 123.948423l39.137619 0 0 195.669152-39.137619 0 0-195.669152Z" fill="#5D4E44" p-id="1863"></path><path d="M733.309407 326.134197l39.137619 0 0 286.977634-39.137619 0 0-286.977634Z" fill="#5D4E44" p-id="1864"></path><path d="M778.963648 345.703006l547.850893 0 0 260.873259-547.850893 0 0-260.873259Z" fill="#C7B299" p-id="1865"></path><path d="M120.273351 697.884747h-1.894367a19.56881 19.56881 0 0 1-17.674442-21.292683L133.363426 324.334548a19.56881 19.56881 0 0 1 38.967126 3.599297L139.728499 680.115586a19.56881 19.56881 0 0 1-19.455148 17.769161zM1385.483082 697.884747A19.56881 19.56881 0 0 1 1366.027935 680.115586l-32.602054-352.181741a19.56881 19.56881 0 1 1 38.967126-3.599297l32.602054 352.181741a19.56881 19.56881 0 0 1-17.674443 21.292683c-0.644085 0.056831-1.231338 0.075775-1.837536 0.075775z" fill="#5D4E44" p-id="1866"></path><path d="M1405.070835 1024l-39.137619 0 0-352.181741 39.137619 0 0 352.181741Z" fill="#5D4E44" p-id="1867"></path><path d="M139.804273 1024l-39.137619 0 0-352.181741 39.137619 0 0 352.181741Z" fill="#5D4E44" p-id="1868"></path><path d="M146.339839 613.111831l1213.095699 0 0 52.170863-1213.095699 0 0-52.170863Z" fill="#D7CFB5" p-id="1869"></path><path d="M694.171788 26.123319h13.052188v286.977634h-13.052188zM642.000925 26.123319h13.052188v286.977634h-13.052188zM589.830062 26.123319h13.052188v286.977634h-13.052188zM746.361595 26.123319h13.052187v286.977634h-13.052187zM792.015836 26.123319h13.052187v286.977634h-13.052187zM844.186699 26.123319h13.052187v286.977634h-13.052187zM896.357562 26.123319h13.052187v286.977634h-13.052187zM942.011803 26.123319h13.052187v286.977634h-13.052187zM537.659199 26.123319h13.052188v286.977634h-13.052188zM987.666044 39.175506h52.170863v260.873259h-52.170863zM452.867339 39.175506h52.170863v260.873259h-52.170863z" fill="#5D4E44" p-id="1870"></path><path d="M589.830062 26.123319h13.052188v286.977634h-13.052188z" fill="#5D4E44" p-id="1871"></path><path d="M868.410621 437.008268l184.46525-184.46525 184.46525 184.46525-184.46525 184.46525-184.46525-184.46525Z" fill="#D7CFB5" p-id="1872"></path><path d="M268.390989 437.005819l184.465251-184.465251 184.46525 184.465251-184.46525 184.46525-184.465251-184.46525Z" fill="#D7CFB5" p-id="1873"></path><path d="M1435.229155 1015.285912A26.085432 26.085432 0 0 1 1409.408935 992.383017c-0.795634-6.459791-19.20888-159.884562 0.113662-284.628619 5.133734-33.132476 1.022958-58.270724-12.180778-74.732772-15.154935-18.792119-39.005013-21.747331-42.509593-22.088317H150.867376c-2.879438 0.265211-27.146277 3.087818-42.414874 22.088317-13.260568 16.443104-17.314513 41.676071-12.199722 74.732772 19.322542 124.744057 0.909296 278.168828 0.113662 284.628619a26.08922 26.08922 0 0 1-51.79199-6.346129c0.189437-1.515493 18.318527-152.818574 0.113662-270.307205-7.577467-48.704172 0.435704-87.803903 23.736417-116.200463 30.783461-37.546351 75.433688-40.539451 80.434816-40.747831h1208.018796c4.982185 0.20838 49.651355 3.20148 80.434816 40.747831 23.300712 28.415503 31.275997 67.515234 23.736417 116.200463-18.223809 117.659125 0 268.791712 0.113662 270.307205a26.085432 26.085432 0 0 1-22.732403 29.059588 27.259939 27.259939 0 0 1-3.20148 0.189436z" fill="#9E6C65" p-id="1874"></path></svg>