<?xml version="1.0" standalone="no"?><!DOCTYPE svg PUBLIC "-//W3C//DTD SVG 1.1//EN" "http://www.w3.org/Graphics/SVG/1.1/DTD/svg11.dtd"><svg t="1595515918605" class="icon" viewBox="0 0 1024 1024" version="1.1" xmlns="http://www.w3.org/2000/svg" p-id="1254" xmlns:xlink="http://www.w3.org/1999/xlink" width="200" height="200"><defs><style type="text/css"></style></defs><path d="M511.84128 512m-450.56 0a450.56 450.56 0 1 0 901.12 0 450.56 450.56 0 1 0-901.12 0Z" fill="#95ACF5" p-id="1255"></path><path d="M587.4432 583.99744m-346.63936 0a346.63936 346.63936 0 1 0 693.27872 0 346.63936 346.63936 0 1 0-693.27872 0Z" fill="#7998EF" p-id="1256"></path><path d="M481.65888 486.2208a245.248 245.248 0 1 1 0.03072 346.77248 245.20704 245.20704 0 0 1-0.03072-346.77248z" fill="#5F87E9" p-id="1257"></path><path d="M752.58368 737.28H271.36a41.04192 41.04192 0 0 1-40.96-41.0112V327.71072A41.04192 41.04192 0 0 1 271.36 286.72h481.19808A41.04704 41.04704 0 0 1 793.6 327.71072v368.55808a41.04192 41.04192 0 0 1-41.01632 41.0112zM271.36 325.12a2.56 2.56 0 0 0-2.56 2.56v368.5888a2.56 2.56 0 0 0 2.56 2.56h481.19808a2.56 2.56 0 0 0 2.56-2.56V327.71072a2.56 2.56 0 0 0-2.56-2.56H271.36z m267.5712 316.95872H315.81184a19.21536 19.21536 0 0 1-19.20512-19.22048v-49.06496a19.2256 19.2256 0 0 1 10.00448-16.896L364.544 525.312a64.44032 64.44032 0 0 1-12.6208-38.17472v-28.99456a76.22144 76.22144 0 1 1 152.44288 0v29.00992a64.31232 64.31232 0 0 1-13.02016 38.69696l56.832 31.09888a19.2256 19.2256 0 0 1 9.99424 16.86016v49.06496a19.21536 19.21536 0 0 1-19.21536 19.22048zM335.01696 603.648h184.73472v-18.432l-61.7216-33.792a25.75872 25.75872 0 0 1-2.78528-43.44832A25.46176 25.46176 0 0 0 465.92 487.15264v-29.00992a37.80608 37.80608 0 1 0-75.61216 0v29.00992a25.54368 25.54368 0 0 0 10.38336 20.6592 25.7536 25.7536 0 0 1-3.072 43.2384L335.01696 585.216v18.432z m141.44-85.9392z m233.73824-53.97504h-133.22752v-38.4256h133.23264v38.43584z m-38.4 72.12544h-94.82752v-38.4256h94.81728v38.43584z m38.4 80.22016h-133.22752v-38.43584h133.23264v38.43584z" fill="#FFFFFF" p-id="1258"></path></svg>