<?xml version="1.0" standalone="no"?><!DOCTYPE svg PUBLIC "-//W3C//DTD SVG 1.1//EN" "http://www.w3.org/Graphics/SVG/1.1/DTD/svg11.dtd"><svg t="1595515506647" class="icon" viewBox="0 0 1333 1024" version="1.1" xmlns="http://www.w3.org/2000/svg" p-id="2011" xmlns:xlink="http://www.w3.org/1999/xlink" width="260.3515625" height="200"><defs><style type="text/css"></style></defs><path d="M363.564874 810.366042h605.882797v121.24695H363.564874z" fill="#D7CFB5" p-id="2012"></path><path d="M12.142292 478.652689h1308.551985c6.68706 0 12.142292 5.455233 12.142293 12.142293v436.242653c0 6.68706-5.455233 12.142292-12.142293 12.142293H12.142292c-6.68706 0-12.142292-5.455233-12.142292-12.142293V490.794982c0-6.68706 5.455233-12.142292 12.142292-12.142293z" fill="#493A31" p-id="2013"></path><path d="M314.995704 0h702.845162c6.68706 0 12.142292 5.455233 12.142293 12.142292v387.673484c0 6.68706-5.455233 12.142292-12.142293 12.142292H314.995704c-6.68706 0-12.142292-5.455233-12.142293-12.142292V12.142292c0-6.68706 5.455233-12.142292 12.142293-12.142292z" fill="#D7CFB5" p-id="2014"></path><path d="M1005.698574 24.284585v363.564874H327.137996V24.284585h678.560578M1017.840866 0H314.995704c-6.68706 0-12.142292 5.455233-12.142293 12.142292v387.673484c0 6.68706 5.455233 12.142292 12.142293 12.142292h702.845162c6.68706 0 12.142292-5.455233 12.142293-12.142292V12.142292c0-6.68706-5.455233-12.142292-12.142293-12.142292z" fill="#5D4E44" p-id="2015"></path><path d="M375.707166 654.275992H957.305379c6.68706 0 12.142292 5.455233 12.142292 12.142293V739.096065c0 6.68706-5.455233 12.142292-12.142292 12.142292H375.707166c-6.68706 0-12.142292-5.455233-12.142292-12.142292v-72.67778c0-6.68706 5.455233-12.142292 12.142292-12.142293z" fill="#FFFFFF" p-id="2016"></path><path d="M957.305379 666.418285V739.096065H375.531191v-72.67778H957.305379m0-12.142293H375.531191c-6.68706 0-12.142292 5.455233-12.142293 12.142293V739.096065c0 6.68706 5.455233 12.142292 12.142293 12.142292H957.305379c6.68706 0 12.142292-5.455233 12.142292-12.142292v-72.67778c0-6.68706-5.455233-12.142292-12.142292-12.142293z" fill="#5D4E44" p-id="2017"></path><path d="M54.552329 521.062726h1223.731912c6.68706 0 12.142292 5.455233 12.142293 12.142292v72.67778c0 6.68706-5.455233 12.142292-12.142293 12.142292H54.552329c-6.68706 0-12.142292-5.455233-12.142293-12.142292V533.205018c0-6.68706 5.455233-12.142292 12.142293-12.142292z" fill="#FFFFFF" p-id="2018"></path><path d="M1278.284241 533.029043v72.677779H54.552329v-72.677779h1223.731912m0-12.142293H54.552329c-6.68706 0-12.142292 5.455233-12.142293 12.142293v72.677779c0 6.68706 5.455233 12.142292 12.142293 12.142293h1223.907888c6.68706 0 12.142292-5.455233 12.142292-12.142293v-72.677779c-0.175975-6.68706-5.631208-12.142292-12.318268-12.142293z" fill="#5D4E44" p-id="2019"></path><path d="M684.719711 787.665235H957.305379c6.68706 0 12.142292 5.455233 12.142292 12.142292v96.962365c0 6.68706-5.455233 12.142292-12.142292 12.142292H684.719711c-6.68706 0-12.142292-5.455233-12.142292-12.142292v-96.962365c0-6.68706 5.279258-12.142292 12.142292-12.142292z" fill="#D7CFB5" p-id="2020"></path><path d="M957.305379 799.807527v96.962365H684.543736v-96.962365h272.761643m0-12.142292H684.543736c-6.68706 0-12.142292 5.455233-12.142292 12.142292v96.962365c0 6.68706 5.455233 12.142292 12.142292 12.142292h272.761643c6.68706 0 12.142292-5.455233 12.142292-12.142292v-96.962365c0-6.863035-5.455233-12.142292-12.142292-12.142292z" fill="#5D4E44" p-id="2021"></path><path d="M375.707166 787.665235h278.744802c6.68706 0 12.142292 5.455233 12.142292 12.142292v96.962365c0 6.68706-5.455233 12.142292-12.142292 12.142292H375.707166c-6.68706 0-12.142292-5.455233-12.142292-12.142292v-96.962365c0-6.68706 5.455233-12.142292 12.142292-12.142292z" fill="#D7CFB5" p-id="2022"></path><path d="M654.275992 799.807527v96.962365H375.531191v-96.962365h278.744801m0-12.142292H375.531191c-6.68706 0-12.142292 5.455233-12.142293 12.142292v96.962365c0 6.68706 5.455233 12.142292 12.142293 12.142292h278.744801c6.68706 0 12.142292-5.455233 12.142293-12.142292v-96.962365c0-6.863035-5.455233-12.142292-12.142293-12.142292zM424.100361 495.370339c-6.68706 0-12.142292-5.455233-12.142293-12.142293 0-0.703901 0-1.231827 0.175976-1.935728l12.142292-72.677779c1.055852-6.68706 7.390961-11.086441 13.902045-10.03059 6.68706 1.055852 11.086441 7.390961 10.03059 13.902045l-12.142293 72.67778c-0.879876 5.807183-5.983159 10.206565-11.966317 10.206565z" fill="#5D4E44" p-id="2023"></path><path d="M363.564874 131.805465c-6.68706 0-12.142292-5.455233-12.142293-12.142293 0-3.167555 1.231827-6.335109 3.519505-8.622787l54.552329-54.552329c4.751332-4.751332 12.494243-4.751332 17.069599 0s4.751332 12.494243 0 17.0696l-54.552328 54.552329c-2.111703 2.463654-5.279258 3.69548-8.446812 3.69548zM908.736209 313.587902c-6.68706 0-12.142292-5.455233-12.142293-12.142293 0-3.167555 1.231827-6.335109 3.519506-8.446812l54.552328-54.552329c4.751332-4.751332 12.494243-4.751332 17.0696 0s4.751332 12.494243 0 17.0696l-54.552329 54.552329c-2.111703 2.287678-5.279258 3.519505-8.446812 3.519505zM345.263447 252.876439c-6.68706 0-12.142292-5.279258-12.142292-11.966317 0-3.34353 1.231827-6.511084 3.69548-8.798763L530.741364 39.770407c4.575357-4.927307 12.318268-5.103282 17.0696-0.35195s5.103282 12.318268 0.351951 17.069599l-0.527926 0.527926-193.748754 192.340952c-2.287678 2.287678-5.279258 3.519505-8.622788 3.519505z" fill="#E8E2D1" p-id="2024"></path><path d="M920.878501 495.370339c-5.983159 0-10.910466-4.223406-11.966317-10.206565l-12.142292-72.67778c-1.407802-6.511084 2.815604-13.022169 9.326688-14.429971 6.511084-1.407802 13.022169 2.815604 14.429971 9.326689 0 0.351951 0.175975 0.703901 0.175975 1.055851l12.142293 72.67778c1.055852 6.68706-3.34353 12.846194-10.03059 13.902045-0.703901 0.175975-1.231827 0.175975-1.935728 0.351951z" fill="#5D4E44" p-id="2025"></path><path d="M54.552329 654.275992h290.887094c6.68706 0 12.142292 5.455233 12.142292 12.142293v230.175631c0 6.68706-5.455233 12.142292-12.142292 12.142293H54.552329c-6.68706 0-12.142292-5.455233-12.142293-12.142293V666.418285c0-6.68706 5.455233-12.142292 12.142293-12.142293z" fill="#D7CFB5" p-id="2026"></path><path d="M345.263447 666.418285v230.175631H54.552329V666.418285h290.711118m0-12.142293H54.552329c-6.68706 0-12.142292 5.455233-12.142293 12.142293v230.175631c0 6.68706 5.455233 12.142292 12.142293 12.142293h290.887094c6.68706 0 12.142292-5.455233 12.142292-12.142293V666.418285c-0.175975-6.68706-5.631208-12.142292-12.318268-12.142293z" fill="#5D4E44" p-id="2027"></path><path d="M987.573123 654.275992h290.711118c6.68706 0 12.142292 5.455233 12.142293 12.142293v230.175631c0 6.68706-5.455233 12.142292-12.142293 12.142293H987.573123c-6.68706 0-12.142292-5.455233-12.142293-12.142293V666.418285c0-6.68706 5.455233-12.142292 12.142293-12.142293z" fill="#D7CFB5" p-id="2028"></path><path d="M1278.284241 666.418285v230.175631H987.573123V666.418285h290.711118m0-12.142293H987.573123c-6.68706 0-12.142292 5.455233-12.142293 12.142293v230.175631c0 6.68706 5.455233 12.142292 12.142293 12.142293h290.887094c6.68706 0 12.142292-5.455233 12.142292-12.142293V666.418285c-0.175975-6.68706-5.631208-12.142292-12.318268-12.142293z" fill="#5D4E44" p-id="2029"></path><path d="M820.924557 845.209142m-18.125451 0a18.125451 18.125451 0 1 0 36.250903 0 18.125451 18.125451 0 1 0-36.250903 0Z" fill="#5D4E44" p-id="2030"></path><path d="M518.071146 845.209142m-18.125451 0a18.125451 18.125451 0 1 0 36.250902 0 18.125451 18.125451 0 1 0-36.250902 0Z" fill="#5D4E44" p-id="2031"></path><path d="M12.142292 478.652689h1308.551985c6.68706 0 12.142292 5.455233 12.142293 12.142293v12.142292c0 6.68706-5.455233 12.142292-12.142293 12.142293H12.142292c-6.68706 0-12.142292-5.455233-12.142292-12.142293v-12.142292c0-6.68706 5.455233-12.142292 12.142292-12.142293zM12.142292 624.008249h1308.551985c6.68706 0 12.142292 5.455233 12.142293 12.142292 0 6.68706-5.455233 12.142292-12.142293 12.142293H12.142292c-6.68706 0-12.142292-5.455233-12.142292-12.142293 0-6.68706 5.455233-12.142292 12.142292-12.142292zM357.40574 757.397491h618.02509v24.284585H357.40574zM654.275992 533.205018h24.284585v84.820072h-24.284585zM12.142292 914.895343h1308.551985c6.68706 0 12.142292 5.455233 12.142293 12.142292 0 6.68706-5.455233 12.142292-12.142293 12.142293H12.142292c-6.68706 0-12.142292-5.455233-12.142292-12.142293 0-6.68706 5.455233-12.142292 12.142292-12.142292z" fill="#5D4E44" p-id="2032"></path><path d="M12.142292 478.652689h12.142293c6.68706 0 12.142292 5.455233 12.142292 12.142293V1011.857708c0 6.68706-5.455233 12.142292-12.142292 12.142292H12.142292c-6.68706 0-12.142292-5.455233-12.142292-12.142292V490.794982c0-6.68706 5.455233-12.142292 12.142292-12.142293zM1308.72796 478.652689h12.142293c6.68706 0 12.142292 5.455233 12.142292 12.142293V1011.857708c0 6.68706-5.455233 12.142292-12.142292 12.142292h-12.142293c-6.68706 0-12.142292-5.455233-12.142292-12.142292V490.794982c0-6.68706 5.455233-12.142292 12.142292-12.142293z" fill="#5D4E44" p-id="2033"></path><path d="M199.907888 781.506101m-90.803231 0a90.803231 90.803231 0 1 0 181.606462 0 90.803231 90.803231 0 1 0-181.606462 0Z" fill="#C7B299" p-id="2034"></path><path d="M199.907888 702.845162c43.465888 0 78.836914 35.195051 78.836914 78.836914s-35.195051 78.836914-78.836914 78.836914-78.836914-35.195051-78.836914-78.836914c0.175975-43.641863 35.371026-78.836914 78.836914-78.836914m0-12.142292c-50.152947 0-90.803231 40.650284-90.803231 90.803231s40.650284 90.803231 90.803231 90.803231 90.803231-40.650284 90.803231-90.803231-40.650284-90.803231-90.803231-90.803231z" fill="#5D4E44" p-id="2035"></path><path d="M196.916309 690.878845v181.430487c1.055852 0 1.935728 0.175975 2.991579 0.175975s1.935728-0.175975 2.991579-0.175975V690.878845c-1.055852 0-1.935728-0.175975-2.991579-0.175975s-1.935728 0-2.991579 0.175975zM172.631724 868.261901c1.935728 0.527926 4.047431 1.055852 5.983158 1.583777V693.166523c-2.111703 0.527926-4.047431 0.879876-5.983158 1.583778v173.5116zM148.523114 856.471559c1.935728 1.407802 4.047431 2.639629 5.983159 3.871455v-157.321876c-2.111703 1.231827-4.047431 2.463654-5.983159 3.871455v149.578966zM124.238529 831.659048c1.935728 2.815604 3.871456 5.455233 5.983159 8.094862V723.258292c-2.111703 2.639629-4.223406 5.279258-5.983159 8.094861v100.305895zM269.594088 723.258292v116.671593c2.111703-2.639629 4.223406-5.279258 5.983159-8.094862v-100.305894c-1.759753-2.991579-3.871456-5.631208-5.983159-8.270837zM245.309503 860.167039c2.111703-1.231827 4.047431-2.463654 5.983159-3.871456v-149.578965c-1.935728-1.407802-4.047431-2.639629-5.983159-3.871456v157.321877zM221.200894 869.845678c2.111703-0.527926 4.047431-0.879876 5.983158-1.583777v-173.335625c-1.935728-0.527926-4.047431-1.055852-5.983158-1.583777v176.503179z" fill="#5D4E44" p-id="2036"></path><path d="M1132.928682 781.506101m-90.803231 0a90.803231 90.803231 0 1 0 181.606462 0 90.803231 90.803231 0 1 0-181.606462 0Z" fill="#C7B299" p-id="2037"></path><path d="M1132.928682 702.845162c43.465888 0 78.836914 35.195051 78.836913 78.836914s-35.195051 78.836914-78.836913 78.836914c-43.465888 0-78.836914-35.195051-78.836914-78.836914 0.175975-43.641863 35.371026-78.836914 78.836914-78.836914m0-12.142292c-50.152947 0-90.803231 40.650284-90.803231 90.803231s40.650284 90.803231 90.803231 90.803231 90.803231-40.650284 90.803231-90.803231-40.650284-90.803231-90.803231-90.803231z" fill="#5D4E44" p-id="2038"></path><path d="M1129.937103 690.878845v181.430487c1.055852 0 1.935728 0.175975 2.991579 0.175975s1.935728-0.175975 2.991579-0.175975V690.878845c-1.055852 0-1.935728-0.175975-2.991579-0.175975s-1.935728 0-2.991579 0.175975zM1105.652518 868.261901c1.935728 0.527926 4.047431 1.055852 5.983158 1.583777V693.166523c-2.111703 0.527926-4.047431 0.879876-5.983158 1.583778v173.5116zM1081.367933 856.471559c1.935728 1.407802 4.047431 2.639629 5.983158 3.871455v-157.321876c-2.111703 1.231827-4.047431 2.463654-5.983158 3.871455v149.578966zM1057.259323 831.659048c1.935728 2.815604 3.871456 5.455233 5.983159 8.094862V723.258292c-2.111703 2.639629-4.223406 5.279258-5.983159 8.094861v100.305895zM1202.614882 723.258292v116.671593c2.111703-2.639629 4.223406-5.279258 5.983159-8.094862v-100.305894c-1.759753-2.991579-3.871456-5.631208-5.983159-8.270837zM1178.330297 860.167039c2.111703-1.231827 4.047431-2.463654 5.983159-3.871456v-149.578965c-1.935728-1.407802-4.047431-2.639629-5.983159-3.871456v157.321877zM1154.221688 869.845678c2.111703-0.527926 4.047431-0.879876 5.983158-1.583777v-173.335625c-1.935728-0.527926-4.047431-1.055852-5.983158-1.583777v176.503179z" fill="#5D4E44" p-id="2039"></path><path d="M933.020794 575.615054c0-9.150713-6.68706-17.42155-16.893624-23.052758v-0.527926c0-3.69548-2.111703-6.68706-4.927307-6.687059h-53.320502c-2.639629 0-4.927307 2.991579-4.927307 6.687059v0.527926c-10.38254 5.631208-16.893624 13.72607-16.893625 23.052758s6.68706 17.42155 17.0696 23.052758v0.527926c0 3.69548 2.111703 6.68706 4.927307 6.68706h53.320502c2.639629 0 4.927307-2.991579 4.927307-6.68706v-0.527926c10.030589-5.631208 16.717649-13.902045 16.717649-23.052758z" fill="#C7B299" p-id="2040"></path><path d="M1029.983159 557.313628h157.497851c6.68706 0 12.142292 5.455233 12.142293 12.142292 0 6.68706-5.455233 12.142292-12.142293 12.142293h-157.497851c-6.68706 0-12.142292-5.455233-12.142293-12.142293 0-6.68706 5.455233-12.142292 12.142293-12.142292z" fill="#D7CFB5" p-id="2041"></path><path d="M1011.857708 581.598213h157.497851c6.68706 0 12.142292 5.455233 12.142293 12.142292 0 6.68706-5.455233 12.142292-12.142293 12.142293H1011.857708c-6.68706 0-12.142292-5.455233-12.142293-12.142293 0-6.68706 5.455233-12.142292 12.142293-12.142292z" fill="#C7B299" p-id="2042"></path><path d="M145.883485 569.45592h265.722633c3.519505 0 6.511084 2.991579 6.511084 6.511085v23.404708c0 3.519505-2.991579 6.511084-6.511084 6.511085h-265.722633c-3.519505 0-6.511084-2.991579-6.511084-6.511085v-23.404708c0-3.519505 2.815604-6.511084 6.511084-6.511085z" fill="#D7CFB5" p-id="2043"></path><path d="M133.213267 563.472762H424.100361c3.34353 0 5.983159 2.639629 5.983159 5.983158s-2.639629 5.983159-5.983159 5.983159H133.213267c-3.34353 0-5.983159-2.639629-5.983159-5.983159s2.639629-5.983159 5.983159-5.983158z" fill="#72A48E" p-id="2044"></path></svg>