<?xml version="1.0" standalone="no"?><!DOCTYPE svg PUBLIC "-//W3C//DTD SVG 1.1//EN" "http://www.w3.org/Graphics/SVG/1.1/DTD/svg11.dtd"><svg t="1595515924746" class="icon" viewBox="0 0 1024 1024" version="1.1" xmlns="http://www.w3.org/2000/svg" p-id="1411" xmlns:xlink="http://www.w3.org/1999/xlink" width="200" height="200"><defs><style type="text/css"></style></defs><path d="M511.84128 512m-450.56 0a450.56 450.56 0 1 0 901.12 0 450.56 450.56 0 1 0-901.12 0Z" fill="#F2BF70" p-id="1412"></path><path d="M587.4432 583.99744m-346.63936 0a346.63936 346.63936 0 1 0 693.27872 0 346.63936 346.63936 0 1 0-693.27872 0Z" fill="#F5AC57" p-id="1413"></path><path d="M481.65888 486.2208a245.248 245.248 0 1 1 0.03072 346.77248 245.20704 245.20704 0 0 1-0.03072-346.77248z" fill="#F79C43" p-id="1414"></path><path d="M609.88928 768h-308.7872A39.72608 39.72608 0 0 1 261.12 728.62208v-433.2544A39.72608 39.72608 0 0 1 301.10208 256h308.7872a39.72608 39.72608 0 0 1 39.9872 39.36768v433.2544a39.72608 39.72608 0 0 1-39.9872 39.37792z m-308.7872-475.10016a2.49344 2.49344 0 0 0-2.5088 2.47296v433.2544a2.49344 2.49344 0 0 0 2.5088 2.46784h308.7872a2.49344 2.49344 0 0 0 2.50368-2.46784V295.36768a2.49344 2.49344 0 0 0-2.50368-2.47296h-308.7872z m433.8432 469.67296h-64.4864v-36.89984h64.512a0.65536 0.65536 0 0 0 0.66048-0.65024V427.74016a0.65536 0.65536 0 0 0-0.66048-0.65024h-64.512v-36.89984h64.512a37.888 37.888 0 0 1 38.144 37.55008v297.28256a37.888 37.888 0 0 1-38.1696 37.55008z m-172.84096-375.05024H348.88704v-36.89984h213.21728v36.89984z m0 150.528H348.88704v-36.8896h213.21728v36.89472z m0 129.8944H348.88704v-36.89984h213.21728v36.89984z" fill="#FFFFFF" p-id="1415"></path></svg>