<?xml version="1.0" standalone="no"?><!DOCTYPE svg PUBLIC "-//W3C//DTD SVG 1.1//EN" "http://www.w3.org/Graphics/SVG/1.1/DTD/svg11.dtd"><svg t="1595571579117" class="icon" viewBox="0 0 1024 1024" version="1.1" xmlns="http://www.w3.org/2000/svg" p-id="1366" xmlns:xlink="http://www.w3.org/1999/xlink" width="200" height="200"><defs><style type="text/css"></style></defs><path d="M552 700l320-180 48-28-248-400-352 204 232 404z" fill="#B81430" p-id="1367"></path><path d="M320 296l-184 160 28 20 32-16 128-104 184 324 44 20L320 296z" fill="#FF5959" p-id="1368"></path><path d="M552 700l-44-20v224l364-208v-176l-320 180z" fill="#B39E91" p-id="1369"></path><path d="M164 476l156-128 4 8-128 104-32 16z" fill="#B81430" p-id="1370"></path><path d="M324 356l-128 104v268l96 52 92 52 124 72v-224L324 356z" fill="#FFFACC" p-id="1371"></path><path d="M292 780v-210l92 56V832l-92-52z" fill="#4899D6" p-id="1372"></path><path d="M196 728l-44 24 312 176 44-24-124-72-92-52-96-52z" fill="#FF5959" p-id="1373"></path><path d="M152 752v32l312 176v-32l-312-176z" fill="#E8383E" p-id="1374"></path><path d="M508 904l-44 24v32l408-236v-28l-364 208z" fill="#B81430" p-id="1375"></path><path d="M292 466v28l92 56v-28l-92-56zM292 518v28l92 56v-28l-92-56z" fill="#FF5959" p-id="1376"></path><path d="M280 684v20l20 12v-20l-20-12z" fill="#E8383E" p-id="1377"></path><path d="M300 716l12-8v-20l-12 8v20z" fill="#B81430" p-id="1378"></path><path d="M312 688l-20-12-12 8 20 12 12-8z" fill="#FF5959" p-id="1379"></path><path d="M652 336v92l80 44V380l-80-44z" fill="#4899D6" p-id="1380"></path><path d="M752 920V232l52 28v688l-52-28z" fill="#FBAC30" p-id="1381"></path><path d="M804 948l48-28V232l-48 28v688z" fill="#E64F00" p-id="1382"></path><path d="M752 232l52-28 48 28-48 28-52-28z" fill="#FFEA17" p-id="1383"></path><path d="M752 280v8l52 28 48-28V240l64 36-184 104-80-44 100-56z" fill="#80DAE0" p-id="1384"></path><path d="M732 472l264-152v-36l-80-8-184 104v92z" fill="#0C67AD" p-id="1385"></path><path d="M852 240l72 8 72 36-80-8-64-36z" fill="#4899D6" p-id="1386"></path><path d="M124 184V88l68-40v90L264 96v80L196 216v92L124 352V260l-28 16-40 28V224l68-40z" fill="#2AA849" p-id="1387"></path><path d="M192 48l-34-18L92 68l32 20 68-40z" fill="#76D449" p-id="1388"></path><path d="M92 68v96l32 20V88l-32-20z" fill="#167A2F" p-id="1389"></path><path d="M192 138L264 96l-32-16-40 22v36zM92 164L24 204l32 20 68-40-32-20z" fill="#76D449" p-id="1390"></path><path d="M24 204v80l32 20V224l-32-20zM124 260v92l-28-16V276l28-16z" fill="#167A2F" p-id="1391"></path></svg>