<?xml version="1.0" standalone="no"?><!DOCTYPE svg PUBLIC "-//W3C//DTD SVG 1.1//EN" "http://www.w3.org/Graphics/SVG/1.1/DTD/svg11.dtd"><svg t="1595515520589" class="icon" viewBox="0 0 1704 1024" version="1.1" xmlns="http://www.w3.org/2000/svg" p-id="2181" xmlns:xlink="http://www.w3.org/1999/xlink" width="332.8125" height="200"><defs><style type="text/css"></style></defs><path d="M426.155385 140.86384h836.560572v294.303719H426.155385z" fill="#493A31" p-id="2182"></path><path d="M480.38107 156.389036h728.109201c8.550108 0 15.525196 6.975088 15.525197 15.525196v216.902741c0 8.550108-6.975088 15.525196-15.525197 15.525197H480.38107c-8.550108 0-15.525196-6.975088-15.525196-15.525197V171.914232c0-8.550108 6.975088-15.525196 15.525196-15.525196z" fill="#736357" p-id="2183"></path><path d="M1208.490271 171.914232v216.902741H480.156068V171.914232h728.334203m0-15.525196H480.156068c-8.550108 0-15.525196 6.975088-15.525197 15.525196v216.902741c0 8.550108 6.975088 15.525196 15.525197 15.525197H1208.265269c8.550108 0 15.525196-6.975088 15.525196-15.525197V171.914232c0.225003-8.550108-6.750085-15.525196-15.300194-15.525196z" fill="#5D4E44" p-id="2184"></path><path d="M735.9843 156.389036h216.902741c8.550108 0 15.525196 6.975088 15.525197 15.525196V411.992266c0 8.550108-6.975088 15.525196-15.525197 15.525196h-216.902741c-8.550108 0-15.525196-6.975088-15.525196-15.525196V171.914232c0-8.550108 6.975088-15.525196 15.525196-15.525196z" fill="#FFFFFF" p-id="2185"></path><path d="M952.887041 171.914232V411.992266h-216.902741V171.914232h216.902741m0-15.525196h-216.902741c-8.550108 0-15.525196 6.975088-15.525196 15.525196V411.992266c0 8.550108 6.975088 15.525196 15.525196 15.525196h216.902741c8.550108 0 15.525196-6.975088 15.525197-15.525196V171.914232c0-8.550108-6.975088-15.525196-15.525197-15.525196z" fill="#5D4E44" p-id="2186"></path><path d="M844.435671 156.389036c4.275054 0 7.8751 3.375043 7.875099 7.650097v255.60323c0 4.275054-3.375043 7.650097-7.650096 7.650097s-7.650097-3.375043-7.650097-7.650097V164.264136c-0.450006-4.275054 3.15004-7.8751 7.425094-7.8751zM805.510179 156.389036c4.275054 0 7.8751 3.375043 7.8751 7.650097v255.60323c0 4.275054-3.375043 7.650097-7.650097 7.650097s-7.650097-3.375043-7.650097-7.650097V164.264136c-0.225003-4.275054 3.375043-7.8751 7.425094-7.8751zM766.80969 156.389036c4.275054 0 7.8751 3.375043 7.875099 7.650097v255.60323c0 4.275054-3.375043 7.650097-7.650096 7.650097s-7.650097-3.375043-7.650097-7.650097V164.264136c-0.225003-4.275054 3.15004-7.8751 7.425094-7.8751zM883.13616 156.389036c4.275054 0 7.8751 3.375043 7.875099 7.650097v255.60323c0 4.275054-3.375043 7.650097-7.650096 7.650097s-7.650097-3.375043-7.650097-7.650097V164.264136c-0.450006-4.275054 3.15004-7.8751 7.425094-7.8751zM921.836649 156.389036c4.275054 0 7.8751 3.375043 7.8751 7.650097v255.60323c0 4.275054-3.375043 7.650097-7.650097 7.650097s-7.650097-3.375043-7.650097-7.650097V164.264136c-0.225003-4.275054 3.15004-7.8751 7.425094-7.8751zM1231.665564 148.73894h31.050393v294.303719h-31.050393zM426.155385 148.73894h31.050393v294.303719h-31.050393z" fill="#5D4E44" p-id="2187"></path><path d="M1007.112727 450.917758H712.584005c-8.550108 0.675009-15.975202-5.850074-16.650211-14.175179-0.675009-8.550108 5.850074-15.975202 14.175179-16.65021h296.778751c8.550108-0.225003 15.750199 6.30008 15.975202 14.850187 0.225003 8.550108-6.30008 15.750199-14.850188 15.975202h-0.900011z" fill="#5D4E44" p-id="2188"></path><path d="M170.327152 373.291777m-77.400978 0a77.400978 77.400978 0 1 0 154.801956 0 77.400978 77.400978 0 1 0-154.801956 0Z" fill="#C7B299" p-id="2189"></path><path d="M1525.969283 373.291777m-77.400978 0a77.400978 77.400978 0 1 0 154.801956 0 77.400978 77.400978 0 1 0-154.801956 0Z" fill="#C7B299" p-id="2190"></path><path d="M46.575589 489.618247h1611.24536c8.550108 0 15.525196 6.975088 15.525197 15.525196V551.494029c0 8.550108-6.975088 15.525196-15.525197 15.525196H46.575589c-8.550108 0-15.525196-6.975088-15.525197-15.525196v-46.575588c0-8.550108 6.975088-15.300193 15.525197-15.300194z" fill="#493A31" p-id="2191"></path><path d="M92.926174 443.042659h1518.319187c8.550108 0 15.525196 6.975088 15.525196 15.525196v61.875782H77.400978v-61.875782c0-8.550108 6.975088-15.525196 15.525196-15.525196z" fill="#D7CFB5" p-id="2192"></path><path d="M441.680581 411.992266h805.510179c8.550108 0 15.525196 6.975088 15.525197 15.525196 0 8.550108-6.975088 15.525196-15.525197 15.525197h-805.510179c-8.550108 0-15.525196-6.975088-15.525196-15.525197 0-8.550108 6.750085-15.525196 15.525196-15.525196zM46.575589 193.514505h15.525196c8.550108 0 15.525196 6.975088 15.525196 15.525197v706.508928c0 8.550108-6.975088 15.525196-15.525196 15.525196h-15.525196c-8.550108 0-15.525196-6.975088-15.525197-15.525196v-706.508928c0-8.550108 6.975088-15.525196 15.525197-15.525197zM1642.295753 187.439429h15.525196c8.550108 0 15.525196 6.975088 15.525197 15.525196v706.508928c0 8.550108-6.975088 15.525196-15.525197 15.525196h-15.525196c-8.550108 0-15.525196-6.975088-15.525196-15.525196v-706.508928c0-8.550108 6.975088-15.525196 15.525196-15.525196z" fill="#5D4E44" p-id="2193"></path><path d="M15.525196 845.797748h1673.121143c8.550108 0 15.525196 6.975088 15.525196 15.525196v15.525196c0 8.550108-6.975088 15.525196-15.525196 15.525197H15.525196c-8.550108 0-15.525196-6.975088-15.525196-15.525197v-15.525196c0-8.550108 6.975088-15.525196 15.525196-15.525196z" fill="#5D4E44" p-id="2194"></path><path d="M15.525196 543.843932h1673.121143c8.550108 0 15.525196 6.975088 15.525196 15.525197v371.704697c0 8.550108-6.975088 15.525196-15.525196 15.525196H15.525196c-8.550108 0-15.525196-6.975088-15.525196-15.525196V559.144126c0-8.550108 6.975088-15.300193 15.525196-15.300194z" fill="#493A31" p-id="2195"></path><path d="M15.525196 528.318736h1673.121143c8.550108 0 15.525196 6.975088 15.525196 15.525196v15.525197c0 8.550108-6.975088 15.525196-15.525196 15.525196H15.525196c-8.550108 0-15.525196-6.975088-15.525196-15.525196v-15.525197c0-8.550108 6.975088-15.525196 15.525196-15.525196zM15.525196 915.54863h1673.121143c8.550108 0 15.525196 6.975088 15.525196 15.525196 0 8.550108-6.975088 15.525196-15.525196 15.525196H15.525196c-8.550108 0-15.525196-6.975088-15.525196-15.525196 0-8.550108 6.975088-15.525196 15.525196-15.525196z" fill="#5D4E44" p-id="2196"></path><path d="M15.525196 528.318736h15.525196c8.550108 0 15.525196 6.975088 15.525197 15.525196v387.229894c0 8.550108-6.975088 15.525196-15.525197 15.525196H15.525196c-8.550108 0-15.525196-6.975088-15.525196-15.525196V543.843932c0-8.550108 6.975088-15.525196 15.525196-15.525196zM1673.346146 528.318736h15.525196c8.550108 0 15.525196 6.975088 15.525196 15.525196v387.229894c0 8.550108-6.975088 15.525196-15.525196 15.525196h-15.525196c-8.550108 0-15.525196-6.975088-15.525197-15.525196V543.843932c0-8.550108 6.975088-15.525196 15.525197-15.525196z" fill="#5D4E44" p-id="2197"></path><path d="M69.750881 582.544421h1564.669773c8.550108 0 15.525196 6.975088 15.525196 15.525197v294.303719c0 8.550108-6.975088 15.525196-15.525196 15.525196H69.750881c-8.550108 0-15.525196-6.975088-15.525196-15.525196V598.069618c0-8.550108 6.975088-15.525196 15.525196-15.525197z" fill="#FFFFFF" p-id="2198"></path><path d="M1634.420654 598.069618v294.303719H69.750881V598.069618h1564.669773m0-15.525197H69.750881c-8.550108 0-15.525196 6.975088-15.525196 15.525197v294.303719c0 8.550108 6.975088 15.525196 15.525196 15.525196h1564.894776c8.550108 0 15.525196-6.975088 15.525196-15.525196V598.069618c-0.225003-8.550108-7.200091-15.525196-15.750199-15.525197z" fill="#5D4E44" p-id="2199"></path><path d="M131.626663 822.622455h1440.918209c8.550108 0 15.525196 6.975088 15.525196 15.525196v170.327153c0 8.550108-6.975088 15.525196-15.525196 15.525196H131.626663c-8.550108 0-15.525196-6.975088-15.525196-15.525196v-170.327153c0-8.550108 6.975088-15.525196 15.525196-15.525196z" fill="#493A31" p-id="2200"></path><path d="M185.852349 876.84814h1332.466838c8.550108 0 15.525196 6.975088 15.525196 15.525197v92.926174c0 8.550108-6.975088 15.525196-15.525196 15.525196H185.852349c-8.550108 0-15.525196-6.975088-15.525197-15.525196v-92.926174c0-8.550108 6.975088-15.525196 15.525197-15.525197z" fill="#FFFFFF" p-id="2201"></path><path d="M1518.319187 892.373337v92.926174H185.852349v-92.926174h1332.466838m0-15.525197H185.852349c-8.550108 0-15.525196 6.975088-15.525197 15.525197v92.926174c0 8.550108 6.975088 15.525196 15.525197 15.525196h1332.466838c8.550108 0 15.525196-6.975088 15.525196-15.525196v-92.926174c0-8.550108-6.975088-15.525196-15.525196-15.525197zM131.626663 822.622455h15.525197c8.550108 0 15.525196 6.975088 15.525196 15.525196v170.327153c0 8.550108-6.975088 15.525196-15.525196 15.525196h-15.525197c-8.550108 0-15.525196-6.975088-15.525196-15.525196v-170.327153c0-8.550108 6.975088-15.525196 15.525196-15.525196z" fill="#5D4E44" p-id="2202"></path><path d="M131.626663 822.622455h1440.918209c8.550108 0 15.525196 6.975088 15.525196 15.525196v15.525197c0 8.550108-6.975088 15.525196-15.525196 15.525196H131.626663c-8.550108 0-15.525196-6.975088-15.525196-15.525196v-15.525197c0-8.550108 6.975088-15.525196 15.525196-15.525196zM123.976567 1008.474804h1456.443404c4.275054 0 7.650097 3.375043 7.650097 7.650096s-3.375043 7.650097-7.650097 7.650097H123.976567c-4.275054 0-7.650097-3.375043-7.650097-7.650097-0.225003-4.050051 3.375043-7.650097 7.650097-7.650096z" fill="#5D4E44" p-id="2203"></path><path d="M1557.019676 822.622455h15.525196c8.550108 0 15.525196 6.975088 15.525196 15.525196v170.327153c0 8.550108-6.975088 15.525196-15.525196 15.525196H1557.019676c-8.550108 0-15.525196-6.975088-15.525197-15.525196v-170.327153c0-8.550108 6.975088-15.525196 15.525197-15.525196z" fill="#5D4E44" p-id="2204"></path><path d="M689.408712 443.042659h309.828915v46.575588H689.408712z" fill="#493A31" p-id="2205"></path><path d="M666.233419 257.19031h356.404504c8.550108 0 15.525196 6.975088 15.525196 15.525196v170.327153c0 8.550108-6.975088 15.525196-15.525196 15.525196H666.233419c-8.550108 0-15.525196-6.975088-15.525196-15.525196v-170.327153c0-8.550108 6.975088-15.525196 15.525196-15.525196z" fill="#493A31" p-id="2206"></path><path d="M1007.112727 288.240702v139.501763H681.758615v-139.501763h325.354112m15.525196-31.050392H666.233419c-8.550108 0-15.525196 6.975088-15.525196 15.525196v170.327153c0 8.550108 6.975088 15.525196 15.525196 15.525196h356.404504c8.550108 0 15.525196-6.975088 15.525196-15.525196V272.490503c-0.225003-8.325105-6.975088-15.300193-15.525196-15.300193z" fill="#5D4E44" p-id="2207"></path><path d="M635.183027 466.217951h418.280285c8.550108 0 15.525196 6.975088 15.525197 15.525197v15.525196c0 8.550108-6.975088 15.525196-15.525197 15.525196H635.183027c-8.550108 0-15.525196-6.975088-15.525197-15.525196V481.743148c0-8.550108 6.975088-15.525196 15.525197-15.525197z" fill="#493A31" p-id="2208"></path><path d="M1053.463312 466.217951H635.183027c-8.550108 0-15.525196 6.975088-15.525197 15.525197v15.525196c0 8.550108 6.975088 15.525196 15.525197 15.525196h418.280285c8.550108 0 15.525196-6.975088 15.525197-15.525196V481.743148c0-8.550108-6.975088-15.525196-15.525197-15.525197z" fill="#5D4E44" p-id="2209"></path><path d="M704.933908 295.890799h278.778523c8.550108 0 15.525196 6.975088 15.525196 15.525196v92.926175c0 8.550108-6.975088 15.525196-15.525196 15.525196H704.933908c-8.550108 0-15.525196-6.975088-15.525196-15.525196v-92.926175c0-8.550108 6.975088-15.525196 15.525196-15.525196z" fill="#493A31" p-id="2210"></path><path d="M983.712431 311.415995v92.926175H704.933908v-92.926175h278.778523m0-15.525196H704.933908c-8.550108 0-15.525196 6.975088-15.525196 15.525196v92.926175c0 8.550108 6.975088 15.525196 15.525196 15.525196h278.778523c8.550108 0 15.525196-6.975088 15.525196-15.525196v-92.926175c0-8.550108-6.975088-15.525196-15.525196-15.525196z" fill="#5D4E44" p-id="2211"></path><path d="M735.9843 295.890799h216.902741c8.550108 0 15.525196 6.975088 15.525197 15.525196v92.926175c0 8.550108-6.975088 15.525196-15.525197 15.525196h-216.902741c-8.550108 0-15.525196-6.975088-15.525196-15.525196v-92.926175c0-8.550108 6.975088-15.525196 15.525196-15.525196z" fill="#CCCCCC" p-id="2212"></path><path d="M952.887041 311.415995v92.926175h-216.902741v-92.926175h216.902741m0-15.525196h-216.902741c-8.550108 0-15.525196 6.975088-15.525196 15.525196v92.926175c0 8.550108 6.975088 15.525196 15.525196 15.525196h216.902741c8.550108 0 15.525196-6.975088 15.525197-15.525196v-92.926175c0-8.550108-6.975088-15.525196-15.525197-15.525196z" fill="#5D4E44" p-id="2213"></path><path d="M844.435671 295.890799c4.275054 0 7.8751 3.375043 7.875099 7.650097V411.992266c0 4.275054-3.375043 7.650097-7.650096 7.650097s-7.650097-3.375043-7.650097-7.650097v-108.45137c-0.450006-4.275054 3.15004-7.650097 7.425094-7.650097zM805.510179 295.890799c4.275054 0 7.8751 3.375043 7.8751 7.650097V411.992266c0 4.275054-3.375043 7.650097-7.650097 7.650097s-7.650097-3.375043-7.650097-7.650097v-108.45137c-0.225003-4.275054 3.375043-7.650097 7.425094-7.650097zM766.80969 295.890799c4.275054 0 7.8751 3.375043 7.875099 7.650097V411.992266c0 4.275054-3.375043 7.650097-7.650096 7.650097s-7.650097-3.375043-7.650097-7.650097v-108.45137c-0.225003-4.275054 3.15004-7.650097 7.425094-7.650097zM883.13616 295.890799c4.275054 0 7.8751 3.375043 7.875099 7.650097V411.992266c0 4.275054-3.375043 7.650097-7.650096 7.650097s-7.650097-3.375043-7.650097-7.650097v-108.45137c-0.450006-4.275054 3.15004-7.650097 7.425094-7.650097zM921.836649 295.890799c4.275054 0 7.8751 3.375043 7.8751 7.650097V411.992266c0 4.275054-3.375043 7.650097-7.650097 7.650097s-7.650097-3.375043-7.650097-7.650097v-108.45137c-0.225003-4.275054 3.15004-7.650097 7.425094-7.650097zM1649.94585 226.139918h-204.302582c-39.375498 0-60.525765-6.750085-82.126038-17.775225-11.925151-6.075077-25.200318-13.950176-38.925492-22.275281C1298.266406 170.339213 1262.265951 148.73894 1244.265723 148.73894H440.330564c-17.100216 0-48.375611 20.025253-73.350927 36.000454-12.825162 8.325105-25.200318 16.200205-36.675463 22.275282-22.95029 12.375156-52.875668 19.125242-84.601069 19.125242H54.225685c-12.825162 0-23.175293-10.350131-23.175293-23.175293 0-12.825162 10.350131-23.175293 23.175293-23.175293h191.47742c23.850301 0 46.575589-4.950063 62.55079-13.500171 9.900125-5.400068 21.37527-12.600159 33.525424-20.475258 33.300421-21.37527 67.725856-43.425549 98.551245-43.425549h804.385165c31.050392 0 68.175862 22.500284 104.176317 44.100557 13.050165 7.8751 25.425321 15.300193 36.000454 20.700262 16.200205 8.325105 30.600387 12.600159 60.975771 12.600159h204.302582c12.825162 0 23.175293 10.350131 23.175293 23.175293-0.225003 12.825162-10.575134 23.175293-23.400296 23.175293z" fill="#5D4E44" p-id="2214"></path><path d="M865.135932 222.539872c0 31.050392-29.025367 34.650438-64.575816 34.650438-35.775452 0-64.575816-3.600045-64.575816-34.650438s38.475486-90.901149 64.575816-90.901149c23.625299 0 64.575816 59.850756 64.575816 90.901149z" fill="#72A48E" p-id="2215"></path><path d="M799.435102 135.013766c-4.275054 0-7.650097-3.600045-7.650096-7.875099 0-1.125014 0.225003-2.475031 0.900011-3.375043l8.325105-16.200205c18.450233-35.550449 42.975543-67.500853 72.675919-94.276191l12.375156-11.250142c3.15004-2.925037 8.100102-2.700034 11.025139 0.675008s2.700034 8.100102-0.675008 11.02514l-12.375157 11.250142c-28.350358 25.425321-51.750654 56.025708-69.300875 89.776134l-8.325106 16.200205c-1.57502 2.475031-4.275054 4.050051-6.975088 4.050051z" fill="#AA846B" p-id="2216"></path><path d="M793.360025 118.138553h14.400182c4.275054 0 7.650097 3.375043 7.650097 7.650097v4.500056c0 4.275054-3.375043 7.650097-7.650097 7.650097h-14.400182c-4.275054 0-7.650097-3.375043-7.650096-7.650097v-4.500056c-0.225003-4.275054 3.375043-7.650097 7.650096-7.650097z" fill="#D7CFB5" p-id="2217"></path><path d="M824.185415 91.138212h-0.900011c-4.275054-0.450006-7.425094-4.275054-6.975089-8.550108l4.950063-49.725629c0.450006-4.275054 4.275054-7.425094 8.550108-6.975088 4.275054 0.450006 7.425094 4.275054 6.975088 8.550108l-4.950062 49.725629c-0.450006 3.825048-3.825048 6.975088-7.650097 6.975088z" fill="#AA846B" p-id="2218"></path><path d="M828.685472 83.488115c-4.275054 0-7.8751-3.375043-7.8751-7.650097 0-3.825048 2.700034-7.200091 6.525083-7.875099l69.975884-12.150154c4.275054-0.675009 8.325105 2.025026 9.000114 6.30008 0.675009 4.275054-2.025026 8.325105-6.30008 9.000114l-69.975884 12.150153c-0.450006 0-0.900011 0-1.350017 0.225003z" fill="#AA846B" p-id="2219"></path></svg>