<?xml version="1.0" standalone="no"?><!DOCTYPE svg PUBLIC "-//W3C//DTD SVG 1.1//EN" "http://www.w3.org/Graphics/SVG/1.1/DTD/svg11.dtd"><svg t="1595515903962" class="icon" viewBox="0 0 1024 1024" version="1.1" xmlns="http://www.w3.org/2000/svg" p-id="1097" xmlns:xlink="http://www.w3.org/1999/xlink" width="200" height="200"><defs><style type="text/css"></style></defs><path d="M511.84128 512m-450.56 0a450.56 450.56 0 1 0 901.12 0 450.56 450.56 0 1 0-901.12 0Z" fill="#92CEF8" p-id="1098"></path><path d="M587.4432 583.99744m-346.63936 0a346.63936 346.63936 0 1 0 693.27872 0 346.63936 346.63936 0 1 0-693.27872 0Z" fill="#62B4F9" p-id="1099"></path><path d="M481.65888 486.2208a245.248 245.248 0 1 1 0.03072 346.77248 245.20704 245.20704 0 0 1-0.03072-346.77248z" fill="#3599F3" p-id="1100"></path><path d="M512 778.2912A266.2912 266.2912 0 1 1 778.24 512a266.56256 266.56256 0 0 1-266.24 266.2912z m0-493.01504A226.71872 226.71872 0 1 0 738.68288 512 226.94912 226.94912 0 0 0 512 285.27616zM435.41504 637.2864a19.78368 19.78368 0 0 1-19.49696-23.12704l12.87168-75.06432L374.272 485.92896a19.7888 19.7888 0 0 1 10.96192-33.74592l75.35104-10.95168 33.69984-68.3008a19.77856 19.77856 0 0 1 35.47648 0l33.69984 68.3008 75.35104 10.95168a19.7888 19.7888 0 0 1 10.96704 33.74592l-54.528 53.16608 12.8768 75.06432a19.7888 19.7888 0 0 1-28.70272 20.85888L512 599.552l-67.39968 35.44576a19.7632 19.7632 0 0 1-9.18528 2.28864zM512 557.44a19.7632 19.7632 0 0 1 9.216 2.27328l41.12896 21.62176-7.84896-45.78304a19.8144 19.8144 0 0 1 5.68832-17.51552l33.28-32.44032-45.9776-6.656a19.77344 19.77344 0 0 1-14.89408-10.82368L512 426.3936l-20.56704 41.6768a19.7888 19.7888 0 0 1-14.89408 10.82368l-45.98272 6.656 33.28 32.44032a19.79904 19.79904 0 0 1 5.68832 17.51552l-7.85408 45.80352 41.12896-21.62176a19.7632 19.7632 0 0 1 9.20064-2.24768z" fill="#FFFFFF" p-id="1101"></path></svg>