<?xml version="1.0" standalone="no"?><!DOCTYPE svg PUBLIC "-//W3C//DTD SVG 1.1//EN" "http://www.w3.org/Graphics/SVG/1.1/DTD/svg11.dtd"><svg t="1595571635686" class="icon" viewBox="0 0 1024 1024" version="1.1" xmlns="http://www.w3.org/2000/svg" p-id="4372" xmlns:xlink="http://www.w3.org/1999/xlink" width="200" height="200"><defs><style type="text/css"></style></defs><path d="M512.256 960.256C264.833024 960.256 64.257024 759.678976 64.257024 512.256 64.257024 264.833024 264.833024 64.256 512.256 64.256 759.678976 64.256 960.254976 264.833024 960.254976 512.256 960.254976 759.678976 759.678976 960.256 512.256 960.256ZM150.41024 495.025152 115.949568 495.025152C106.433536 495.025152 98.717696 502.739968 98.717696 512.256 98.717696 521.772032 106.433536 529.486848 115.949568 529.486848L150.41024 529.486848C159.927296 529.486848 167.641088 521.772032 167.641088 512.256 167.641088 502.739968 159.927296 495.025152 150.41024 495.025152ZM495.025152 908.563456C495.025152 918.079488 502.738944 925.794304 512.256 925.794304 521.772032 925.794304 529.486848 918.079488 529.486848 908.563456L529.486848 874.10176C529.486848 864.585728 521.772032 856.870912 512.256 856.870912 502.738944 856.870912 495.025152 864.585728 495.025152 874.10176L495.025152 908.563456ZM529.486848 115.948544C529.486848 106.432512 521.772032 98.71872 512.256 98.71872 502.738944 98.71872 495.025152 106.432512 495.025152 115.948544L495.025152 150.41024C495.025152 159.926272 502.738944 167.641088 512.256 167.641088 521.772032 167.641088 529.486848 159.926272 529.486848 150.41024L529.486848 115.948544ZM529.486848 526.923776 529.486848 288.256C529.486848 278.739968 521.772032 271.026176 512.256 271.026176 502.738944 271.026176 495.025152 278.739968 495.025152 288.256L495.025152 522.059776 241.229824 775.384064C234.425344 782.175232 234.425344 793.187328 241.229824 799.978496 248.03328 806.769664 259.065856 806.769664 265.869312 799.978496L524.587008 541.741056C528.632832 537.701376 530.2528 532.171776 529.486848 526.923776ZM908.563456 495.025152 874.10176 495.025152C864.584704 495.025152 856.870912 502.739968 856.870912 512.256 856.870912 521.772032 864.584704 529.486848 874.10176 529.486848L908.563456 529.486848C918.079488 529.486848 925.79328 521.772032 925.79328 512.256 925.79328 502.739968 918.079488 495.025152 908.563456 495.025152Z" p-id="4373" fill="#1296db"></path></svg>