<?xml version="1.0" standalone="no"?><!DOCTYPE svg PUBLIC "-//W3C//DTD SVG 1.1//EN" "http://www.w3.org/Graphics/SVG/1.1/DTD/svg11.dtd"><svg t="1595515525337" class="icon" viewBox="0 0 1453 1024" version="1.1" xmlns="http://www.w3.org/2000/svg" p-id="2356" xmlns:xlink="http://www.w3.org/1999/xlink" width="283.7890625" height="200"><defs><style type="text/css"></style></defs><path d="M515.357692 429.400787h13.238898c7.290987 0 13.238898 5.947911 13.238898 13.238898v501.926925c0 7.290987-5.947911 13.238898-13.238898 13.238899h-13.238898c-7.290987 0-13.238898-5.947911-13.238899-13.238899V442.639685c0-7.290987 5.756043-13.238898 13.238899-13.238898z" fill="#5D4E44" p-id="2357"></path><path d="M539.149335 0.575604c7.290987 0.383736 12.855162 6.523515 12.471426 13.814503l-33.19318 633.164699c-0.383736 7.290987-6.523515 12.855162-13.814502 12.471426-7.290987-0.383736-12.855162-6.523515-12.471426-13.814503l33.193179-633.164699C525.718568 5.756043 531.858347 0.191868 539.149335 0.575604zM927.298482 0.575604c7.290987-0.383736 13.430766 5.180438 13.814503 12.471426l33.19318 633.164699c0.383736 7.290987-5.180438 13.430766-12.471426 13.814503-7.290987 0.383736-13.430766-5.180438-13.814503-12.471426l-33.19318-633.164699c-0.383736-7.290987 5.180438-13.430766 12.471426-13.814503z" fill="#5D4E44" p-id="2358"></path><path d="M938.043095 429.400787h13.238899c7.290987 0 13.238898 5.947911 13.238898 13.238898v501.926925c0 7.290987-5.947911 13.238898-13.238898 13.238899h-13.238899c-7.290987 0-13.238898-5.947911-13.238898-13.238899V442.639685c0-7.290987 5.947911-13.238898 13.238898-13.238898zM780.327525 46.815814c0-7.674724-4.796702-13.814503-10.744613-13.814502h-72.718007c-5.947911 0-10.744613 6.139779-10.744613 13.814502l-13.622634 500.967585c0 7.674724 4.796702 13.814503 10.744613 13.814502h99.963275c5.947911 0 10.744613-6.139779 10.744613-13.814502l-13.622634-500.967585z" fill="#5D4E44" p-id="2359"></path><path d="M13.238898 363.398164h1426.731123c7.290987 0 13.238898 5.947911 13.238898 13.238898V759.797639c0 7.290987-5.947911 13.238898-13.238898 13.238898H13.238898c-7.290987 0-13.238898-5.947911-13.238898-13.238898V376.637062c0-7.482856 5.947911-13.238898 13.238898-13.238898z" fill="#493A31" p-id="2360"></path><path d="M13.238898 363.398164h343.443883c7.290987 0 13.238898 5.947911 13.238898 13.238898v634.12404c0 7.290987-5.947911 13.238898-13.238898 13.238898H13.238898c-7.290987 0-13.238898-5.947911-13.238898-13.238898V376.637062c0-7.482856 5.947911-13.238898 13.238898-13.238898zM1096.526138 363.398164h343.443883c7.290987 0 13.238898 5.947911 13.238898 13.238898v634.12404c0 7.290987-5.947911 13.238898-13.238898 13.238898h-343.443883c-7.290987 0-13.238898-5.947911-13.238898-13.238898V376.637062c0-7.482856 5.947911-13.238898 13.238898-13.238898z" fill="#493A31" p-id="2361"></path><path d="M1142.766348 409.638374h250.963463c7.290987 0 13.238898 5.947911 13.238898 13.238898v303.919056c0 7.290987-5.947911 13.238898-13.238898 13.238898H1142.766348c-7.290987 0-13.238898-5.947911-13.238898-13.238898V422.877272c0-7.482856 5.947911-13.238898 13.238898-13.238898z" fill="#C7B299" p-id="2362"></path><path d="M1393.729811 422.685404v303.919055H1142.766348V422.685404h250.963463m0-13.238898H1142.766348c-7.290987 0-13.238898 5.947911-13.238898 13.238898v303.919055c0 7.290987 5.947911 13.238898 13.238898 13.238899h250.963463c7.290987 0 13.238898-5.947911 13.238898-13.238899V422.685404c0-7.290987-5.947911-13.238898-13.238898-13.238898z" fill="#5D4E44" p-id="2363"></path><path d="M59.479108 409.638374h250.963463c7.290987 0 13.238898 5.947911 13.238898 13.238898v303.919056c0 7.290987-5.947911 13.238898-13.238898 13.238898H59.479108c-7.290987 0-13.238898-5.947911-13.238898-13.238898V422.877272c0-7.482856 5.947911-13.238898 13.238898-13.238898z" fill="#C7B299" p-id="2364"></path><path d="M310.442571 422.685404v303.919055H59.479108V422.685404h250.963463m0-13.238898H59.479108c-7.290987 0-13.238898 5.947911-13.238898 13.238898v303.919055c0 7.290987 5.947911 13.238898 13.238898 13.238899h250.963463c7.290987 0 13.238898-5.947911 13.238898-13.238899V422.685404c0-7.290987-5.947911-13.238898-13.238898-13.238898z" fill="#5D4E44" p-id="2365"></path><path d="M1142.766348 779.560052h250.963463c7.290987 0 13.238898 5.947911 13.238898 13.238899v171.721941c0 7.290987-5.947911 13.238898-13.238898 13.238898H1142.766348c-7.290987 0-13.238898-5.947911-13.238898-13.238898v-171.721941c0-7.482856 5.947911-13.238898 13.238898-13.238899z" fill="#FFFFFF" p-id="2366"></path><path d="M1393.729811 792.607083v171.721941H1142.766348v-171.721941h250.963463m0-13.047031H1142.766348c-7.290987 0-13.238898 5.947911-13.238898 13.238899v171.721941c0 7.290987 5.947911 13.238898 13.238898 13.238898h250.963463c7.290987 0 13.238898-5.947911 13.238898-13.238898v-171.721941c0-7.482856-5.947911-13.238898-13.238898-13.238899z" fill="#5D4E44" p-id="2367"></path><path d="M59.479108 779.560052h250.963463c7.290987 0 13.238898 5.947911 13.238898 13.238899v171.721941c0 7.290987-5.947911 13.238898-13.238898 13.238898H59.479108c-7.290987 0-13.238898-5.947911-13.238898-13.238898v-171.721941c0-7.482856 5.947911-13.238898 13.238898-13.238899z" fill="#FFFFFF" p-id="2368"></path><path d="M310.442571 792.607083v171.721941H59.479108v-171.721941h250.963463m0-13.047031H59.479108c-7.290987 0-13.238898 5.947911-13.238898 13.238899v171.721941c0 7.290987 5.947911 13.238898 13.238898 13.238898h250.963463c7.290987 0 13.238898-5.947911 13.238898-13.238898v-171.721941c0-7.482856-5.947911-13.238898-13.238898-13.238899z" fill="#5D4E44" p-id="2369"></path><path d="M389.684092 409.638374h673.840735c7.290987 0 13.238898 5.947911 13.238898 13.238898v303.919056c0 7.290987-5.947911 13.238898-13.238898 13.238898H389.684092c-7.290987 0-13.238898-5.947911-13.238898-13.238898V422.877272c0-7.482856 5.947911-13.238898 13.238898-13.238898z" fill="#D7CFB5" p-id="2370"></path><path d="M1063.524827 422.685404v303.919055H389.684092V422.685404h673.840735m0-13.238898H389.684092c-7.290987 0-13.238898 5.947911-13.238898 13.238898v303.919055c0 7.290987 5.947911 13.238898 13.238898 13.238899h673.840735c7.290987 0 13.238898-5.947911 13.238898-13.238899V422.685404c0-7.290987-5.947911-13.238898-13.238898-13.238898z" fill="#5D4E44" p-id="2371"></path><path d="M455.878583 475.640997h541.64362c7.290987 0 13.238898 5.947911 13.238899 13.238898v171.721941c0 7.290987-5.947911 13.238898-13.238899 13.238898H455.878583c-7.290987 0-13.238898-5.947911-13.238898-13.238898v-171.721941c0-7.290987 5.947911-13.238898 13.238898-13.238898z" fill="#C7B299" p-id="2372"></path><path d="M997.522203 488.879895v171.721941H455.878583v-171.721941h541.64362m0-13.238898H455.878583c-7.290987 0-13.04703 5.947911-13.04703 13.238898v171.721941c0 7.290987 5.947911 13.238898 13.238899 13.238898H997.714072c7.290987 0 13.238898-5.947911 13.238898-13.238898v-171.721941c-0.191868-7.290987-6.139779-13.238898-13.430767-13.238898zM13.238898 363.398164h1426.731123c7.290987 0 13.238898 5.947911 13.238898 13.238898V402.92299H0v-26.477796c0-7.290987 5.947911-13.04703 13.238898-13.04703zM515.357692 0h435.924302c7.290987 0 13.238898 5.947911 13.238898 13.238898v13.238899c0 7.290987-5.947911 13.238898-13.238898 13.238898H515.357692c-7.290987 0-13.238898-5.947911-13.238899-13.238898V13.238898c0-7.290987 5.756043-13.238898 13.238899-13.238898z" fill="#5D4E44" p-id="2373"></path><path d="M13.238898 363.398164h13.238899c7.290987 0 13.238898 5.947911 13.238898 13.238898v634.12404c0 7.290987-5.947911 13.238898-13.238898 13.238898H13.238898c-7.290987 0-13.238898-5.947911-13.238898-13.238898V376.637062c0-7.482856 5.947911-13.238898 13.238898-13.238898zM343.443882 363.398164h13.238899c7.290987 0 13.238898 5.947911 13.238898 13.238898v634.12404c0 7.290987-5.947911 13.238898-13.238898 13.238898H343.443882c-7.290987 0-13.238898-5.947911-13.238898-13.238898V376.637062c0-7.482856 5.947911-13.238898 13.238898-13.238898z" fill="#5D4E44" p-id="2374"></path><path d="M13.238898 746.366873h1426.731123c7.290987 0 13.238898 5.947911 13.238898 13.238898 0 7.290987-5.947911 13.238898-13.238898 13.238898H13.238898c-7.290987 0-13.238898-5.947911-13.238898-13.238898 0-7.290987 5.947911-13.238898 13.238898-13.238898zM13.238898 984.283305h343.443883c7.290987 0 13.238898 5.947911 13.238898 13.238898v13.238899c0 7.290987-5.947911 13.238898-13.238898 13.238898H13.238898c-7.290987 0-13.238898-5.947911-13.238898-13.238898v-13.238899c0-7.290987 5.947911-13.238898 13.238898-13.238898z" fill="#5D4E44" p-id="2375"></path><path d="M1096.526138 363.398164h13.238899c7.290987 0 13.238898 5.947911 13.238898 13.238898v634.12404c0 7.290987-5.947911 13.238898-13.238898 13.238898h-13.238899c-7.290987 0-13.238898-5.947911-13.238898-13.238898V376.637062c0-7.482856 5.947911-13.238898 13.238898-13.238898zM1426.92299 363.398164h13.238899c7.290987 0 13.238898 5.947911 13.238898 13.238898v634.12404c0 7.290987-5.947911 13.238898-13.238898 13.238898h-13.238899c-7.290987 0-13.238898-5.947911-13.238898-13.238898V376.637062c0-7.482856 5.947911-13.238898 13.238898-13.238898z" fill="#5D4E44" p-id="2376"></path><path d="M1096.526138 984.283305h343.443883c7.290987 0 13.238898 5.947911 13.238898 13.238898v13.238899c0 7.290987-5.947911 13.238898-13.238898 13.238898h-343.443883c-7.290987 0-13.238898-5.947911-13.238898-13.238898v-13.238899c0-7.290987 5.947911-13.238898 13.238898-13.238898z" fill="#5D4E44" p-id="2377"></path><path d="M125.481731 336.920367h211.438636c3.645494 0 6.523515 2.878021 6.523515 6.523515v13.238899c0 3.645494-2.878021 6.523515-6.523515 6.523515H125.481731c-3.645494 0-6.523515-2.878021-6.523515-6.523515V343.443882c0-3.645494 2.878021-6.523515 6.523515-6.523515z" fill="#9E6C65" p-id="2378"></path><path d="M283.964774 92.48042v6.523515c0 7.290987 5.947911 13.238898 13.238898 13.238898 10.936481 0 19.762413 8.825932 19.762414 19.762413v204.915121H145.244145V132.005246c0-10.936481 8.825932-19.762413 19.762413-19.762413 7.290987 0 13.238898-5.947911 13.238898-13.238898v-6.523515H283.964774m0-13.238899H178.437324c-7.290987 0-13.238898 5.947911-13.238898 13.238899v6.523515c-18.227469 0-33.001312 14.773843-33.001312 33.001311v217.962151h198.199738V132.005246c0-18.227469-14.773843-33.001312-33.001311-33.001311v-6.523515c-0.191868-7.290987-6.139779-13.238898-13.430767-13.238899z" fill="#9E6C65" p-id="2379"></path><path d="M257.678846 98.044594c3.645494 0 6.523515 2.878021 6.523515 6.523515v158.483043c0 3.645494-2.878021 6.523515-6.523515 6.523515s-6.523515-2.878021-6.523515-6.523515V104.568109c-0.191868-3.453626 2.878021-6.523515 6.523515-6.523515z" fill="#9E6C65" p-id="2380"></path><path d="M257.678846 79.241521c1.726813 0 3.261758 1.534945 3.261757 3.261758v19.762413c0 1.726813-1.534945 3.261758-3.261757 3.261758-1.726813 0-3.261758-1.534945-3.261758-3.261758V82.503279c0-1.726813 1.343077-3.261758 3.261758-3.261758zM257.678846 290.680157c-17.843732 0-18.035601-48.542627-17.843733-48.350758 0-4.412966 8.442196-16.692524 17.07626-16.884392 9.209668-0.191868 18.419337 12.279558 18.419337 16.884392 0-0.191868 0 48.350759-17.651864 48.350758zM204.723253 98.044594c3.645494 0 6.523515 2.878021 6.523515 6.523515v133.156455c0 3.645494-2.878021 6.523515-6.523515 6.523515s-6.523515-2.878021-6.523515-6.523515V104.568109c0-3.453626 2.878021-6.523515 6.523515-6.523515z" fill="#9E6C65" p-id="2381"></path><path d="M204.723253 79.241521c1.726813 0 3.261758 1.534945 3.261757 3.261758v19.762413c0 1.726813-1.534945 3.261758-3.261757 3.261758-1.726813 0-3.261758-1.534945-3.261758-3.261758V82.503279c0-1.726813 1.534945-3.261758 3.261758-3.261758zM204.723253 264.010493c-13.238898 0-13.430766-32.425707-13.238898-32.425708 0-2.878021 6.331647-12.663294 12.855162-12.663294s13.622634 9.785273 13.622634 12.663294c0 0.191868 0 32.425707-13.238898 32.425708z" fill="#9E6C65" p-id="2382"></path><path d="M184.960839 574.644932m-99.003934 0a99.003935 99.003935 0 1 0 198.007869 0 99.003935 99.003935 0 1 0-198.007869 0Z" fill="#736357" p-id="2383"></path><path d="M184.960839 482.164512c51.036912 0 92.48042 41.443508 92.48042 92.48042s-41.443508 92.48042-92.48042 92.480419-92.48042-41.443508-92.480419-92.480419 41.443508-92.288552 92.480419-92.48042m0-6.523515c-54.682406 0-99.003935 44.321529-99.003934 99.003935s44.321529 99.003935 99.003934 99.003934S283.964774 629.327337 283.964774 574.644932s-44.321529-99.003935-99.003935-99.003935z" fill="#5D4E44" p-id="2384"></path><path d="M181.699082 475.832865v197.816001c1.151209 0 2.110549 0.191868 3.261757 0.191868s2.110549-0.191868 3.261758-0.191868V475.832865c-1.151209 0-2.110549-0.191868-3.261758-0.191868s-2.110549 0.191868-3.261757 0.191868zM155.221285 669.2359c2.110549 0.575604 4.412966 1.151209 6.523515 1.726813V478.519018c-2.302417 0.575604-4.412966 0.95934-6.523515 1.726813v188.990069zM128.743489 656.380738c2.110549 1.534945 4.412966 2.878021 6.523515 4.221098v-171.530073c-2.302417 1.343077-4.412966 2.686153-6.523515 4.02923v163.279745zM102.45756 629.327337c2.110549 3.069889 4.221098 5.947911 6.523516 8.825933v-127.208544c-2.302417 2.878021-4.604834 5.756043-6.523516 8.825932V629.327337zM260.940603 511.136594v127.208544c2.302417-2.878021 4.604834-5.756043 6.523515-8.825932v-109.364812c-1.918681-3.261758-4.221098-6.139779-6.523515-9.0178zM234.462807 660.409968c2.302417-1.343077 4.412966-2.686153 6.523515-4.221098v-163.087877c-2.110549-1.534945-4.412966-2.878021-6.523515-4.02923v171.338205zM208.176878 670.962713c2.302417-0.575604 4.412966-0.95934 6.523515-1.726813v-188.990069c-2.110549-0.767472-4.412966-1.151209-6.523515-1.726813v192.443695z" fill="#5D4E44" p-id="2385"></path><path d="M1268.248079 574.644932m-99.003934 0a99.003935 99.003935 0 1 0 198.007869 0 99.003935 99.003935 0 1 0-198.007869 0Z" fill="#736357" p-id="2386"></path><path d="M1268.248079 482.164512c51.036912 0 92.48042 41.443508 92.48042 92.48042s-41.443508 92.48042-92.48042 92.480419-92.48042-41.443508-92.480419-92.480419 41.443508-92.288552 92.480419-92.48042m0-6.523515c-54.682406 0-99.003935 44.513397-99.003934 99.195803 0 54.682406 44.513397 99.003935 99.195803 99.003934 54.682406 0 99.003935-44.321529 99.003934-99.003934 0-54.874274-44.321529-99.195803-99.195803-99.195803 0.191868 0 0.191868 0 0 0z" fill="#5D4E44" p-id="2387"></path><path d="M1264.986322 475.832865v197.816001c1.151209 0 2.110549 0.191868 3.261757 0.191868s2.110549-0.191868 3.261758-0.191868V475.832865c-1.151209 0-2.110549-0.191868-3.261758-0.191868s-2.110549 0.191868-3.261757 0.191868zM1238.508525 669.2359c2.110549 0.575604 4.412966 1.151209 6.523515 1.726813V478.519018c-2.302417 0.575604-4.412966 0.95934-6.523515 1.726813v188.990069zM1212.030729 656.380738c2.110549 1.534945 4.412966 2.878021 6.523515 4.221098v-171.530073c-2.302417 1.343077-4.412966 2.686153-6.523515 4.02923v163.279745zM1185.7448 629.327337c2.110549 3.069889 4.221098 5.947911 6.523516 8.825933v-127.208544c-2.302417 2.878021-4.604834 5.756043-6.523516 8.825932V629.327337zM1344.227843 511.136594v127.208544c2.302417-2.878021 4.604834-5.756043 6.523515-8.825932v-109.364812c-1.918681-3.261758-4.02923-6.139779-6.523515-9.0178zM1317.750047 660.409968c2.302417-1.343077 4.412966-2.686153 6.523515-4.221098v-163.087877c-2.110549-1.534945-4.412966-2.878021-6.523515-4.02923v171.338205zM1291.464118 670.962713c2.302417-0.575604 4.412966-0.95934 6.523516-1.726813v-188.990069c-2.110549-0.767472-4.412966-1.151209-6.523516-1.726813v192.443695z" fill="#5D4E44" p-id="2388"></path><path d="M1063.524827 323.681469H1327.727188c3.645494 0 6.523515 2.878021 6.523515 6.523515v26.477797c0 3.645494-2.878021 6.523515-6.523515 6.523515H1063.524827c-3.645494 0-6.523515-2.878021-6.523515-6.523515v-26.477797c-0.191868-3.645494 2.878021-6.523515 6.523515-6.523515z" fill="#D7CFB5" p-id="2389"></path><path d="M1076.763725 283.964774h264.202361c3.645494 0 6.523515 2.878021 6.523515 6.523515v26.477797c0 3.645494-2.878021 6.523515-6.523515 6.523515H1076.763725c-3.645494 0-6.523515-2.878021-6.523515-6.523515v-26.477797c-0.191868-3.453626 2.878021-6.523515 6.523515-6.523515z" fill="#C7B299" p-id="2390"></path></svg>