<?xml version="1.0" standalone="no"?><!DOCTYPE svg PUBLIC "-//W3C//DTD SVG 1.1//EN" "http://www.w3.org/Graphics/SVG/1.1/DTD/svg11.dtd"><svg t="1595556168876" class="icon" viewBox="0 0 1024 1024" version="1.1" xmlns="http://www.w3.org/2000/svg" p-id="1508" xmlns:xlink="http://www.w3.org/1999/xlink" width="200" height="200"><defs><style type="text/css"></style></defs><path d="M957.44 377.856c0-3.072-1.024-6.144-2.048-9.216 0-3.072 0-6.144-2.048-8.192l-4.096-10.24c0-1.024-1.024-2.048-1.024-2.048l-46.08-104.448c-17.408-39.936-55.296-68.608-99.328-73.728h-2.048c-5.12-1.024-10.24-2.048-14.336-2.048-88.064-10.24-180.224-14.336-274.432-14.336-95.232 0-187.392 4.096-274.432 13.312H235.52c-2.048 0-4.096 1.024-6.144 1.024-3.072 0-6.144 1.024-9.216 1.024-44.032 5.12-81.92 33.792-98.304 73.728l-41.984 97.28c-4.096 7.168-7.168 15.36-10.24 23.552v2.048c-1.024 4.096-2.048 9.216-3.072 14.336C56.32 439.296 51.2 501.76 51.2 563.2c0 61.44 5.12 121.856 15.36 183.296 10.24 54.272 53.248 95.232 106.496 101.376 62.464 8.192 104.448 12.288 128 14.336h8.192c43.008 0 79.872-39.936 115.712-78.848 28.672-30.72 61.44-66.56 86.016-66.56s57.344 34.816 86.016 66.56c37.888 40.96 76.8 82.944 121.856 78.848 21.504-2.048 64.512-6.144 131.072-14.336 55.296-7.168 98.304-48.128 106.496-101.376 10.24-62.464 15.36-121.856 15.36-183.296 1.024-62.464-4.096-124.928-14.336-185.344zM226.304 209.92h2.048c2.048 0 4.096-1.024 6.144-1.024 3.072 0 6.144-1.024 8.192-1.024C327.68 198.656 418.816 194.56 512 194.56c93.184 0 184.32 4.096 271.36 13.312h2.048c2.048 0 5.12 1.024 9.216 1.024l3.072 1.024h1.024c29.696 3.072 55.296 22.528 66.56 49.152l10.24 22.528c-7.168-2.048-15.36-4.096-23.552-5.12-234.496-27.648-443.392-27.648-678.912 0-7.168 1.024-15.36 3.072-22.528 5.12l10.24-23.552c11.264-26.624 35.84-45.056 65.536-48.128z m690.176 529.408c-6.144 35.84-34.816 62.464-71.68 67.584-64.512 8.192-108.544 12.288-128 14.336-25.6 2.048-58.368-33.792-88.064-66.56C591.872 715.776 555.008 675.84 512 675.84s-79.872 39.936-115.712 78.848c-29.696 31.744-63.488 68.608-88.064 66.56h-3.072c-22.528-2.048-65.536-6.144-126.976-14.336-35.84-4.096-64.512-31.744-71.68-68.608C97.28 679.936 92.16 622.592 92.16 563.2c0-59.392 5.12-118.784 15.36-178.176 1.024-4.096 2.048-7.168 3.072-10.24l7.168-15.36c12.288-21.504 34.816-37.888 61.44-40.96C409.6 289.792 614.4 289.792 846.848 317.44c35.84 4.096 64.512 31.744 70.656 66.56 10.24 59.392 15.36 118.784 15.36 178.176-1.024 59.392-6.144 116.736-16.384 177.152zM711.68 409.6C641.024 409.6 583.68 466.944 583.68 537.6S641.024 665.6 711.68 665.6 839.68 608.256 839.68 537.6 782.336 409.6 711.68 409.6z m0 215.04c-48.128 0-87.04-38.912-87.04-87.04s38.912-87.04 87.04-87.04 87.04 38.912 87.04 87.04-38.912 87.04-87.04 87.04z m-399.36-215.04C241.664 409.6 184.32 466.944 184.32 537.6S241.664 665.6 312.32 665.6 440.32 608.256 440.32 537.6 382.976 409.6 312.32 409.6z m0 215.04c-48.128 0-87.04-38.912-87.04-87.04s38.912-87.04 87.04-87.04 87.04 38.912 87.04 87.04-38.912 87.04-87.04 87.04z" p-id="1509"></path></svg>