<?xml version="1.0" standalone="no"?><!DOCTYPE svg PUBLIC "-//W3C//DTD SVG 1.1//EN" "http://www.w3.org/Graphics/SVG/1.1/DTD/svg11.dtd"><svg t="1595515872800" class="icon" viewBox="0 0 1024 1024" version="1.1" xmlns="http://www.w3.org/2000/svg" p-id="940" xmlns:xlink="http://www.w3.org/1999/xlink" width="200" height="200"><defs><style type="text/css"></style></defs><path d="M511.84128 512m-450.56 0a450.56 450.56 0 1 0 901.12 0 450.56 450.56 0 1 0-901.12 0Z" fill="#F39691" p-id="941"></path><path d="M587.4432 583.99744m-346.63936 0a346.63936 346.63936 0 1 0 693.27872 0 346.63936 346.63936 0 1 0-693.27872 0Z" fill="#F28281" p-id="942"></path><path d="M481.65888 486.2208a245.248 245.248 0 1 1 0.03072 346.77248 245.20704 245.20704 0 0 1-0.03072-346.77248z" fill="#F06D71" p-id="943"></path><path d="M721.27488 377.67168L608.14848 258.0992a39.79264 39.79264 0 0 0-28.79488-12.39552H331.41248a39.66976 39.66976 0 0 0-39.63392 39.61344v453.34528a39.66976 39.66976 0 0 0 39.63392 39.61856h361.06752a39.66976 39.66976 0 0 0 39.63392-39.61856V404.8896a39.424 39.424 0 0 0-10.83904-27.21792zM602.112 309.31968l70.33344 74.33728h-48.26624a22.0928 22.0928 0 0 1-22.07232-22.06208v-52.2752zM331.3664 738.6624l0.04608-453.39136h231.10656v76.31872a61.71648 61.71648 0 0 0 61.66016 61.63456h68.34688l-0.04608 315.48416z m180.5824-348.94336H408.74496v39.56736H511.9488v-39.56736z m-103.20384 151.43424h203.7248v-39.56736h-203.7248v39.56736z m0 111.86688h203.7248v-39.57248h-203.7248v39.57248z" fill="#FFFFFF" p-id="944"></path></svg>